<svg xmlns="http://www.w3.org/2000/svg" width="256" height="256" viewBox="0 0 256 256" fill="none">
  <defs>
    <linearGradient id="bg" x1="32" y1="24" x2="224" y2="232" gradientUnits="userSpaceOnUse">
      <stop offset="0%" stop-color="#0070f3"/>
      <stop offset="100%" stop-color="#0050d0"/>
    </linearGradient>
  </defs>
  <circle cx="128" cy="128" r="128" fill="url(#bg)"/>
  <circle cx="128" cy="128" r="124" stroke="rgba(255,255,255,0.18)" stroke-width="4"/>
  <svg x="58" y="58" width="140" height="140" viewBox="0 -960 960 960">
    <path fill="#ffffff" d="M147-376q-45 0-76-31.21T40-483q0-44.58 31.21-75.79Q102.42-590 147-590v-123q0-24 18-42t42-18h166q0-45 31.21-76T480-880q44.58 0 75.79 31.21Q587-817.58 587-773h166q24 0 42 18t18 42v123q45 0 76 31.21T920-483q0 44.58-31.21 75.79Q857.58-376 813-376v196q0 24-18 42t-42 18H207q-24 0-42-18t-18-42v-196Zm196.24-100q16.76 0 28.26-11.74 11.5-11.73 11.5-28.5 0-16.76-11.74-28.26-11.73-11.5-28.5-11.5-16.76 0-28.26 11.74-11.5 11.73-11.5 28.5 0 16.76 11.74 28.26 11.73 11.5 28.5 11.5Zm274 0q16.76 0 28.26-11.74 11.5-11.73 11.5-28.5 0-16.76-11.74-28.26-11.73-11.5-28.5-11.5-16.76 0-28.26 11.74-11.5 11.73-11.5 28.5 0 16.76 11.74 28.26 11.73 11.5 28.5 11.5ZM312-285h336v-60H312v60ZM207-180h546v-533H207v533Zm273-267Z"/>
  </svg>
</svg>
